#!OML:ASF I:\Actors\actors\Patient Classification 2\Patient 1\Session 1\actor1.ASF
:FULLY-SPECIFIED
:DEGREES
711
root -0.773274 18.6745 5.90061 2.8139 -3.32282 -2.06523
lowerback -0.986813 1.05495 0.0453323
upperback -2.96587 1.4306 1.14302
thorax -2.51674 0.728556 1.12948
lowerneck -10.6122 -2.39038 -3.61625
upperneck 26.4932 -3.36636 2.71862
head 10.3012 -1.60597 1.17919
rclavicle -1.70831e-016 6.01324e-015
rhumerus -50.8982 -6.36564 -80.8097
rradius 42.479
rwrist 26.6491
rhand -4.83276 -28.9362
rfingers 7.12502
rthumb 20.9541 302.176
lclavicle -1.70831e-016 6.01324e-015
lhumerus -45.1641 0.0911252 89.3229
lradius 36.0843
lwrist -12.6904
lhand -3.63018 -28.1315
lfingers 7.12502
lthumb 22.1091 0.624499
rfemur 0 0 0
rtibia 0
rfoot 0 0
rtoes 0
lfemur -3.26231 -9.4035 -12.5858
ltibia 20.4268
lfoot -26.7936 18.7624
ltoes -53.7543
712
root -0.771735 18.6753 5.89631 2.84336 -3.29871 -2.00989
lowerback -0.956592 1.06254 0.00779205
upperback -2.95256 1.43993 1.10842
thorax -2.52021 0.73361 1.1144
lowerneck -10.6765 -2.38991 -3.61408
upperneck 26.4935 -3.3738 2.75618
head 10.3147 -1.60412 1.19061
rclavicle 2.15029e-014 1.16289e-014
rhumerus -51.0146 -6.35954 -80.8178
rradius 42.504
rwrist 26.6456
rhand -4.74495 -29.2343
rfingers 7.12502
rthumb 21.0385 301.887
lclavicle 2.15029e-014 1.16289e-014
lhumerus -45.1747 0.173685 89.1527
lradius 36.0847
lwrist -12.7784
lhand -3.61432 -28.2433
lfingers 7.12502
lthumb 22.1243 0.510868
rfemur 0 0 0
rtibia 0
rfoot 0 0
rtoes 0
lfemur -3.33316 -9.38426 -12.6395
ltibia 20.4485
lfoot -26.6986 18.7569
ltoes -53.8588
713
root -0.770712 18.6778 5.89056 2.88699 -3.24644 -1.94452
lowerback -0.924481 1.05643 -0.0564197
upperback -2.94819 1.43091 1.07529
thorax -2.53429 0.730192 1.11587
lowerneck -10.7644 -2.39606 -3.58889
upperneck 26.5446 -3.3871 2.75907
head 10.3507 -1.60639 1.185
rclavicle -5.97596e-015 -1.42628e-014
rhumerus -51.0874 -6.31924 -80.8493
rradius 42.4985
rwrist 26.5458
rhand -4.67655 -29.3977
rfingers 7.12502
rthumb 21.1042 301.731
lclavicle -5.97596e-015 -1.42628e-014
lhumerus -45.1322 0.24709 88.997
lradius 36.0262
lwrist -12.87
lhand -3.71213 -28.3404
lfingers 7.12502
lthumb 22.0304 0.424834
rfemur 0 0 0
rtibia 0
rfoot 0 0
rtoes 0
lfemur -3.41663 -9.38252 -12.6917
ltibia 20.4493
lfoot -26.6201 18.7241
ltoes -53.9109
714
root -0.770012 18.68 5.88542 2.92184 -3.20613 -1.94999
lowerback -0.895343 1.04879 -0.0581973
upperback -2.94554 1.42101 1.0809
thorax -2.54794 0.725383 1.12221
lowerneck -10.7872 -2.39272 -3.5857
upperneck 26.5743 -3.37702 2.7377
head 10.3653 -1.60353 1.17797
rclavicle -8.321e-015 -4.42296e-015
rhumerus -51.1822 -6.2545 -80.8671
rradius 42.5156
rwrist 26.4953
rhand -4.67406 -29.2213
rfingers 7.12502
rthumb 21.1066 301.907
lclavicle -8.321e-015 -4.42296e-015
lhumerus -45.0823 0.309126 88.8859
lradius 35.9597
lwrist -12.8886
lhand -3.86963 -28.3588
lfingers 7.12502
lthumb 21.8791 0.424162
rfemur 0 0 0
rtibia 0
rfoot 0 0
rtoes 0
lfemur -3.47889 -9.4078 -12.6683
ltibia 20.4466
lfoot -26.6514 18.6347
ltoes -53.7397
715
root -0.76906 18.6792 5.88113 2.9333 -3.17734 -1.98113
lowerback -0.868394 1.04413 -0.0248241
upperback -2.93379 1.41537 1.09517
thorax -2.55042 0.721942 1.11784
lowerneck -10.7998 -2.3768 -3.58758
upperneck 26.5971 -3.34852 2.71849
head 10.3747 -1.59256 1.17493
rclavicle -4.42917e-015 9.54166e-015
rhumerus -51.2867 -6.22445 -80.891
rradius 42.5787
rwrist 26.482
rhand -4.59317 -29.1331
rfingers 7.12502
rthumb 21.1843 302.004
lclavicle -4.42917e-015 9.54166e-015
lhumerus -45.0245 0.377801 88.7903
lradius 35.9309
lwrist -12.883
lhand -3.94286 -28.222
lfingers 7.12502
lthumb 21.8088 0.569227
rfemur 0 0 0
rtibia 0
rfoot 0 0
rtoes 0
lfemur -3.54963 -9.28915 -12.6251
ltibia 20.458
lfoot -26.4164 18.7008
ltoes -53.8569
716
root -0.768277 18.6783 5.87668 2.94092 -3.14713 -2.02414
lowerback -0.845013 1.04216 0.013082
upperback -2.91428 1.41343 1.11678
thorax -2.54305 0.720303 1.11857
lowerneck -10.8342 -2.36163 -3.61117
upperneck 26.6215 -3.32177 2.7222
head 10.39 -1.58167 1.18333
rclavicle 1.97946e-014 1.29707e-014
rhumerus -51.3325 -6.21713 -80.9112
rradius 42.6093
rwrist 26.4506
rhand -4.49024 -29.2106
rfingers 7.12502
rthumb 21.2831 301.938
lclavicle 1.97946e-014 1.29707e-014
lhumerus -44.9589 0.439305 88.7226
lradius 35.9665
lwrist -12.8768
lhand -3.89623 -28.1033
lfingers 7.12502
lthumb 21.8536 0.682621
rfemur 0 0 0
rtibia 0
rfoot 0 0
rtoes 0
lfemur -3.61384 -9.17307 -12.5737
ltibia 20.4631
lfoot -26.1121 18.8729
ltoes -53.7016
717
root -0.768212 18.6805 5.8726 2.97904 -3.12993 -2.07668
lowerback -0.858732 1.0356 0.041385
upperback -2.89796 1.40531 1.15189
thorax -2.51859 0.715971 1.13931
lowerneck -10.853 -2.35328 -3.6544
upperneck 26.6185 -3.29908 2.72138
head 10.3926 -1.57538 1.19302
rclavicle 1.13494e-014 -4.32357e-015
rhumerus -51.3278 -6.15212 -80.9601
rradius 42.625
rwrist 26.3711
rhand -4.47117 -29.3466
rfingers 7.12502
rthumb 21.3014 301.804
lclavicle 1.13494e-014 -4.32357e-015
lhumerus -44.9152 0.446494 88.698
lradius 36.074
lwrist -12.7843
lhand -3.76213 -28.0392
lfingers 7.12502
lthumb 21.9824 0.731666
rfemur 0 0 0
rtibia 0
rfoot 0 0
rtoes 0
lfemur -3.64784 -9.30885 -12.5066
ltibia 20.4649
lfoot -26.3188 18.7957
ltoes -54.0469
718
root -0.768033 18.6818 5.86915 3.01606 -3.1311 -2.08487
lowerback -0.900819 1.03238 0.0277145
upperback -2.87397 1.40063 1.16591
thorax -2.4708 0.713987 1.16247
lowerneck -10.845 -2.34111 -3.65442
upperneck 26.5847 -3.27506 2.70002
head 10.3773 -1.56684 1.18832
rclavicle 7.8023e-015 1.00386e-014
rhumerus -51.2884 -6.11018 -81.0339
rradius 42.6521
rwrist 26.2913
rhand -4.49223 -29.4029
rfingers 7.12502
rthumb 21.2812 301.745
lclavicle 7.8023e-015 1.00386e-014
lhumerus -44.8492 0.415804 88.6755
lradius 36.1641
lwrist -12.6321
lhand -3.60676 -28.0161
lfingers 7.12502
lthumb 22.1315 0.73715
rfemur 0 0 0
rtibia 0
rfoot 0 0
rtoes 0
lfemur -3.67865 -9.45232 -12.4892
ltibia 20.4846
lfoot -26.5793 18.6543
ltoes -53.7978
719
root -0.766721 18.6804 5.86501 3.02328 -3.12595 -2.07588
lowerback -0.902498 1.02674 0.0125862
upperback -2.85375 1.39279 1.16557
thorax -2.44921 0.710308 1.17094
lowerneck -10.7896 -2.31969 -3.63223
upperneck 26.5317 -3.24315 2.67586
head 10.3449 -1.55323 1.1802
rclavicle -1.52785e-014 8.29926e-015
rhumerus -51.2684 -6.07901 -81.1272
rradius 42.7162
rwrist 26.2229
rhand -4.54356 -29.3505
rfingers 7.12502
rthumb 21.2319 301.792
lclavicle -1.52785e-014 8.29926e-015
lhumerus -44.7723 0.406315 88.6465
lradius 36.2344
lwrist -12.462
lhand -3.52272 -28.0251
lfingers 7.12502
lthumb 22.2122 0.718628
rfemur 0 0 0
rtibia 0
rfoot 0 0
rtoes 0
lfemur -3.70908 -9.44955 -12.4949
ltibia 20.5021
lfoot -26.5789 18.6194
ltoes -53.753
720
root -0.764848 18.6805 5.85987 3.03957 -3.10131 -2.07337
lowerback -0.866961 1.01171 0.0136386
upperback -2.86963 1.37313 1.1629
thorax -2.48506 0.700535 1.16704
lowerneck -10.6851 -2.30633 -3.59696
upperneck 26.4941 -3.21646 2.60975
head 10.3079 -1.54605 1.15483
rclavicle 1.98257e-014 2.55935e-014
rhumerus -51.3128 -6.01866 -81.2536
rradius 42.8184
rwrist 26.0935
rhand -4.63492 -29.2306
rfingers 7.12502
rthumb 21.1441 301.902
lclavicle 1.98257e-014 2.55935e-014
lhumerus -44.7458 0.380032 88.635
lradius 36.3505
lwrist -12.295
lhand -3.44041 -27.9295
lfingers 7.12502
lthumb 22.2912 0.80481
rfemur 0 0 0
rtibia 0
rfoot 0 0
rtoes 0
lfemur -3.7821 -9.33042 -12.4936
ltibia 20.5048
lfoot -26.3473 18.7394
ltoes -53.9546
721
root -0.763695 18.6823 5.85499 3.08241 -3.0699 -2.06301
lowerback -0.84798 1.00775 0.0121869
upperback -2.90431 1.36799 1.14509
thorax -2.53094 0.697956 1.14894
lowerneck -10.5872 -2.30148 -3.537
upperneck 26.4931 -3.20678 2.53973
head 10.2858 -1.54454 1.1219
rclavicle -1.13742e-014 -1.15295e-014
rhumerus -51.3713 -6.04171 -81.3644
rradius 42.9278
rwrist 25.9856
rhand -4.66518 -29.0689
rfingers 7.12502
rthumb 21.1151 302.061
lclavicle -1.13742e-014 -1.15295e-014
lhumerus -44.743 0.25037 88.6631
lradius 36.5106
lwrist -12.0789
lhand -3.36117 -27.7653
lfingers 7.12502
lthumb 22.3673 0.959852
rfemur 0 0 0
rtibia 0
rfoot 0 0
rtoes 0
lfemur -3.88889 -9.20016 -12.4937
ltibia 20.511
lfoot -26.1005 18.8478
ltoes -53.717
722
root -0.763823 18.6839 5.85121 3.11157 -3.06306 -2.06165
lowerback -0.835962 1.01836 0.00620754
upperback -2.9186 1.38205 1.1297
thorax -2.55246 0.705004 1.13592
lowerneck -10.5469 -2.29912 -3.49959
upperneck 26.5114 -3.20818 2.52149
head 10.2836 -1.54385 1.10935
rclavicle -1.18898e-014 -1.41137e-014
rhumerus -51.3852 -6.07644 -81.4819
rradius 43.0326
rwrist 25.9187
rhand -4.69627 -29.052
rfingers 7.12502
rthumb 21.0852 302.074
lclavicle -1.18898e-014 -1.41137e-014
lhumerus -44.7057 0.12151 88.6986
lradius 36.6766
lwrist -11.8477
lhand -3.35439 -27.6587
lfingers 7.12502
lthumb 22.3738 1.06571
rfemur 0 0 0
rtibia 0
rfoot 0 0
rtoes 0
lfemur -3.91863 -9.22111 -12.4731
ltibia 20.5215
lfoot -26.2673 18.6409
ltoes -54.0076
723
root -0.763647 18.6851 5.84755 3.12184 -3.0887 -2.07055
lowerback -0.803849 1.02962 0.00336051
upperback -2.92936 1.39737 1.12844
thorax -2.58198 0.71279 1.13527
lowerneck -10.5408 -2.29028 -3.47574
upperneck 26.5557 -3.1942 2.49296
head 10.2972 -1.5383 1.09706
rclavicle -2.58824e-014 -5.61567e-015
rhumerus -51.3903 -6.02683 -81.6294
rradius 43.1637
rwrist 25.8075
rhand -4.72697 -29.1716
rfingers 7.12502
rthumb 21.0557 301.952
lclavicle -2.58824e-014 -5.61567e-015
lhumerus -44.6702 0.0633016 88.7203
lradius 36.8273
lwrist -11.6703
lhand -3.32237 -27.6283
lfingers 7.12502
lthumb 22.4046 1.09234
rfemur 0 0 0
rtibia 0
rfoot 0 0
rtoes 0
lfemur -3.91335 -9.26848 -12.4533
ltibia 20.5273
lfoot -26.4942 18.4681
ltoes -53.8106
724
root -0.761997 18.6857 5.84358 3.1331 -3.1188 -2.08049
lowerback -0.772802 1.03494 0.010989
upperback -2.94445 1.40507 1.13549
thorax -2.61517 0.716645 1.13736
lowerneck -10.5148 -2.26867 -3.44881
upperneck 26.6008 -3.15815 2.44516
head 10.3061 -1.52467 1.08026
rclavicle -2.62458e-015 9.0447e-015
rhumerus -51.3602 -5.9502 -81.7571
rradius 43.3012
rwrist 25.6174
rhand -4.70103 -29.1412
rfingers 7.12502
rthumb 21.0806 301.985
lclavicle -2.62458e-015 9.0447e-015
lhumerus -44.6479 -0.00095428 88.7665
lradius 36.995
lwrist -11.4717
lhand -3.19195 -27.5639
lfingers 7.12502
lthumb 22.5297 1.14164
rfemur 0 0 0
rtibia 0
rfoot 0 0
rtoes 0
lfemur -3.92952 -9.31376 -12.4519
ltibia 20.5311
lfoot -26.5866 18.488
ltoes -53.7144
725
root -0.760726 18.6859 5.84033 3.14139 -3.16178 -2.09372
lowerback -0.767837 1.0464 0.0195607
upperback -2.94081 1.42057 1.14269
thorax -2.61451 0.724272 1.13965
lowerneck -10.473 -2.25491 -3.44118
upperneck 26.601 -3.13725 2.42958
head 10.2969 -1.51642 1.07638
rclavicle 2.51897e-015 1.12313e-014
rhumerus -51.2867 -5.88357 -81.8931
rradius 43.4264
rwrist 25.4295
rhand -4.72179 -28.8937
rfingers 7.12502
rthumb 21.0607 302.23
lclavicle 2.51897e-015 1.12313e-014
lhumerus -44.5886 -0.0760341 88.8358
lradius 37.2075
lwrist -11.2297
lhand -3.0525 -27.3116
lfingers 7.12502
lthumb 22.6636 1.37768
rfemur 0 0 0
rtibia 0
rfoot 0 0
rtoes 0
lfemur -3.93792 -9.36683 -12.4478
ltibia 20.534
lfoot -26.6629 18.522
ltoes -53.6183
